<svg height="100%" viewBox="0 -11 512 512" width="100%" xmlns="http://www.w3.org/2000/svg"><path d="m256 415.304688c12.40625 0 22.5-10.09375 22.5-22.5s-10.09375-22.5-22.5-22.5-22.5 10.09375-22.5 22.5 10.09375 22.5 22.5 22.5zm0-30c4.136719 0 7.5 3.367187 7.5 7.5 0 4.136718-3.363281 7.5-7.5 7.5s-7.5-3.363282-7.5-7.5c0-4.132813 3.363281-7.5 7.5-7.5zm0 0"/><path d="m489.5 0h-467c-12.40625 0-22.5 10.09375-22.5 22.5v319.132812c0 12.40625 10.09375 22.5 22.5 22.5h174.011719l-7.171875 68.507813h-52.628906c-6.675782 0-12.863282 3.886719-15.761719 9.898437l-10.359375 21.492188c-2.632813 5.457031-2.277344 11.777344.945312 16.90625s8.761719 8.191406 14.816406 8.191406h259.296876c6.058593 0 11.597656-3.0625 14.820312-8.191406s3.574219-11.449219.941406-16.910156l-10.355468-21.488282c-2.898438-6.015624-9.085938-9.898437-15.765626-9.898437h-53.066406l-8.277344-68.507813h86.222657c4.140625 0 7.5-3.359374 7.5-7.5 0-4.144531-3.359375-7.5-7.5-7.5h-195.042969c-.203125-.007812-.410156-.007812-.609375 0h-182.015625c-4.136719 0-7.5-3.363281-7.5-7.5v-319.132812c0-4.136719 3.363281-7.5 7.5-7.5h467c4.136719 0 7.5 3.363281 7.5 7.5v319.132812c0 4.136719-3.363281 7.5-7.5 7.5h-54.332031c-4.144531 0-7.5 3.355469-7.5 7.5 0 4.140626 3.355469 7.5 7.5 7.5h54.332031c12.40625 0 22.5-10.09375 22.5-22.5v-319.132812c0-12.40625-10.09375-22.5-22.5-22.5zm-111.960938 449.050781 10.359376 21.488281c.523437 1.085938.140624 1.980469-.132813 2.417969-.277344.4375-.914063 1.171875-2.117187 1.171875h-259.296876c-1.203124 0-1.839843-.734375-2.117187-1.171875-.273437-.4375-.65625-1.332031-.132813-2.414062l10.359376-21.492188c.410156-.859375 1.296874-1.414062 2.25-1.414062h178.832031c.007812 0 .015625.003906.019531.003906.007812 0 .011719-.003906.015625-.003906h59.710937c.953126 0 1.839844.554687 2.25 1.414062zm-70.425781-16.414062h-102.695312l7.171875-68.503907h87.246094zm0 0"/><path d="m223.035156 319.796875c-4.140625 0-7.5 3.355469-7.5 7.5s3.359375 7.5 7.5 7.5h65.929688c4.140625 0 7.5-3.355469 7.5-7.5s-3.359375-7.5-7.5-7.5zm0 0"/><path d="m482 286.632812v-239.132812c0-9.648438-7.851562-17.5-17.5-17.5h-417c-9.648438 0-17.5 7.851562-17.5 17.5v18.15625c0 4.144531 3.355469 7.5 7.5 7.5s7.5-3.355469 7.5-7.5v-18.15625c0-1.378906 1.121094-2.5 2.5-2.5h417c1.378906 0 2.5 1.121094 2.5 2.5v239.132812c0 1.378907-1.121094 2.5-2.5 2.5h-417c-1.378906 0-2.5-1.121093-2.5-2.5v-185.976562c0-4.140625-3.355469-7.5-7.5-7.5s-7.5 3.359375-7.5 7.5v185.976562c0 9.648438 7.851562 17.5 17.5 17.5h417c9.648438 0 17.5-7.851562 17.5-17.5zm0 0"/><path d="m256 68.816406c-23.964844 0-43.464844 19.496094-43.464844 43.460938v28.039062h-1.535156c-9.648438 0-17.5 7.851563-17.5 17.5v85c0 12.40625 10.09375 22.5 22.5 22.5h80c12.40625 0 22.5-10.09375 22.5-22.5v-85c0-9.648437-7.851562-17.5-17.5-17.5h-1.535156v-28.039062c0-23.964844-19.5-43.460938-43.464844-43.460938zm-28.464844 43.460938c0-15.691406 12.769532-28.460938 28.464844-28.460938s28.464844 12.769532 28.464844 28.460938v28.039062h-56.929688zm75.964844 45.539062v85c0 4.136719-3.363281 7.5-7.5 7.5h-80c-4.136719 0-7.5-3.363281-7.5-7.5v-85c0-1.378906 1.121094-2.5 2.5-2.5h90c1.378906 0 2.5 1.121094 2.5 2.5zm0 0"/><path d="m256 183.402344c-4.144531 0-7.5 3.359375-7.5 7.5v23.824218c0 4.144532 3.355469 7.5 7.5 7.5s7.5-3.355468 7.5-7.5v-23.824218c0-4.140625-3.355469-7.5-7.5-7.5zm0 0"/></svg>